<?xml version="1.0" encoding="UTF-8" standalone="no"?>
<!-- Created with Inkscape (http://www.inkscape.org/) -->

<svg
   width="2580"
   height="405"
   viewBox="0 0 2580 405"
   version="1.1"
   id="svg12"
   sodipodi:docname="banner.svg"
   inkscape:export-filename="banner.png"
   inkscape:export-xdpi="96"
   inkscape:export-ydpi="96"
   inkscape:version="1.3.2 (091e20e, 2023-11-25)"
   xmlns:inkscape="http://www.inkscape.org/namespaces/inkscape"
   xmlns:sodipodi="http://sodipodi.sourceforge.net/DTD/sodipodi-0.dtd"
   xmlns="http://www.w3.org/2000/svg"
   xmlns:svg="http://www.w3.org/2000/svg">
  <sodipodi:namedview
     id="namedview12"
     pagecolor="#505050"
     bordercolor="#eeeeee"
     borderopacity="1"
     inkscape:showpageshadow="0"
     inkscape:pageopacity="0"
     inkscape:pagecheckerboard="0"
     inkscape:deskcolor="#505050"
     showguides="false"
     inkscape:zoom="0.50000001"
     inkscape:cx="1174"
     inkscape:cy="17"
     inkscape:window-width="2272"
     inkscape:window-height="1212"
     inkscape:window-x="2685"
     inkscape:window-y="25"
     inkscape:window-maximized="0"
     inkscape:current-layer="svg12" />
  <defs
     id="defs11">
    <!-- Define masks for horizontal lines -->
    <mask
       id="mask11">
      <rect
         id="rect1"
         width="0"
         height="0"
         x="0"
         y="0" />
      <rect
         id="rect2"
         width="0"
         height="0"
         x="0"
         y="0" />
      <rect
         id="rect3"
         width="0"
         height="0"
         x="0"
         y="0" />
      <rect
         id="rect4"
         width="0"
         height="0"
         x="0"
         y="0" />
      <rect
         id="rect5"
         width="0"
         height="0"
         x="0"
         y="0" />
      <rect
         id="rect6"
         width="0"
         height="0"
         x="0"
         y="0" />
      <rect
         id="rect7"
         width="0"
         height="0"
         x="0"
         y="0" />
      <rect
         id="rect8"
         width="0"
         height="0"
         x="0"
         y="0" />
      <rect
         id="rect9"
         width="0"
         height="0"
         x="0"
         y="0" />
      <rect
         id="rect10"
         width="0"
         height="0"
         x="0"
         y="0" />
      <rect
         id="rect11"
         width="0"
         height="0"
         x="0"
         y="0" />
    </mask>
  </defs>
  <!-- Draw the overlapping "S" character -->
  <!-- Draw the "K" character -->
  <path
     id="text58"
     style="font-weight:bold;font-size:36.2544px;font-family:'IBM Plex Sans';-inkscape-font-specification:'IBM Plex Sans Bold';letter-spacing:-4.71956px;display:inline;fill:#1e5fb9;stroke:none;stroke-width:7.28906;stroke-linecap:round;stroke-linejoin:round;stroke-miterlimit:181.9"
     d="M 0,13.809813 V 28.352634 H 80.337347 V 13.809813 Z m 218.81665,0 -10.93644,14.542821 h 90.59943 l 0.55709,-0.733004 v 0.733004 H 550.10558 V 13.809813 H 309.70926 Z m 332.22718,0 v 14.542821 h 80.33736 V 13.809813 Z m 211.34002,0 v 14.542821 h 80.33734 V 13.809813 Z m 211.31066,0 V 28.352634 H 1224.7341 V 13.809813 Z m 252.00709,0 v 14.542821 h 95.6718 l -7.9457,-14.542821 z m 225.6776,0 v 14.542821 h 75.5875 V 13.809813 Z M 0,43.364574 V 58.376518 H 80.337347 V 43.364574 Z m 196.59194,0 -11.28828,15.011944 h 89.9837 l 11.58147,-15.011944 z m 102.44476,0 V 58.376518 H 550.10558 V 43.364574 Z m 252.00713,0 v 15.011944 h 80.33736 V 43.364574 Z m 211.34002,0 v 15.011944 h 80.33734 V 43.364574 Z m 211.31066,0 V 58.376518 H 1224.7341 V 43.364574 Z m 252.00709,0 v 15.011944 h 112.0618 l -8.2096,-15.011944 z m 225.6776,0 v 15.011944 h 75.5875 V 43.364574 Z M 0,73.38846 V 88.400401 H 80.337347 V 73.38846 Z m 174.04471,0 -11.28828,15.011941 h 89.33864 l 11.6108,-15.011941 z m 124.99199,0 V 88.400401 H 550.10558 V 73.38846 Z m 252.00713,0 v 15.011941 h 80.33736 V 73.38846 Z m 211.34002,0 v 15.011941 h 80.33734 V 73.38846 Z m 211.31066,0 V 88.400401 H 1224.7341 V 73.38846 Z m 252.00709,0 v 15.011941 h 128.4518 l -8.2096,-15.011941 z m 225.6776,0 v 15.011941 h 75.5875 V 73.38846 Z M 0,103.41234 v 15.01194 h 80.337347 v -15.01194 z m 151.46816,0 -11.28829,15.01194 h 88.75225 l 11.58147,-15.01194 z m 147.56854,0 v 15.01194 h 80.33736 v -15.01194 z m 252.00713,0 v 15.01194 h 80.33736 v -15.01194 z m 211.34002,0 v 15.01194 h 80.33734 v -15.01194 z m 211.31066,0 v 15.01194 h 80.33739 v -15.01194 z m 252.00709,0 v 15.01194 h 144.8418 l -8.2096,-15.01194 z m 225.6776,0 v 15.01194 h 75.5875 V 103.41234 Z M 0,133.43622 v 15.01195 h 80.337347 v -15.01195 z m 129.44868,0 -10.37935,15.01195 h 86.67051 l 11.61081,-15.01195 z m 169.58802,0 v 15.01195 h 80.33736 v -15.01195 z m 252.00713,0 v 15.01195 h 80.33736 v -15.01195 z m 211.34002,0 v 15.01195 h 80.33734 v -15.01195 z m 211.31066,0 v 15.01195 h 80.33739 v -15.01195 z m 252.00709,0 v 15.01195 h 75.5875 v -6.86093 h 1.5833 l 3.1079,6.86093 h 80.9531 l -8.2096,-15.01195 z m 225.6776,0 v 15.01195 h 75.5875 V 133.43622 Z M 0,163.46013 v 15.01193 h 80.337347 v -15.01193 z m 108.68998,0 -10.379351,15.01193 h 89.426621 l -2.22834,-3.81162 8.64946,-11.20031 z m 190.34672,0 v 15.01193 h 226.73311 v -8.88402 H 379.37406 v -6.12791 z m 252.00713,0 v 15.01193 h 80.33736 v -15.01193 z m 211.34002,0 v 15.01193 h 80.33734 v -15.01193 z m 211.31066,0 v 15.01193 h 226.73309 v -8.88402 h -146.3957 v -6.12791 z m 252.00709,0 v 15.01193 h 75.5875 v -15.01193 z m 87.0224,0 6.773,15.01193 h 83.8264 l -8.2097,-15.01193 z m 138.6552,0 v 15.01193 h 75.5875 V 163.46013 Z M 0,193.48399 v 15.01195 h 205.38799 l -8.82537,-15.01195 H 87.931278 l -4.427349,6.39182 H 80.337347 V 193.484 Z m 299.0367,0 v 15.01195 h 226.73311 v -15.01195 z m 252.00713,0 v 15.01195 h 80.33736 v -15.01195 z m 211.34002,0 v 15.01195 h 80.33734 v -15.01195 z m 211.31066,0 v 15.01195 h 226.73309 v -15.01195 z m 252.00709,0 v 15.01195 h 75.5875 v -15.01195 z m 100.5683,0 6.773,15.01195 h 85.7323 l -4.3981,-9.76363 -2.8734,-5.24832 z m 125.1093,0 v 15.01195 h 75.5875 V 193.48399 Z M 0,223.50788 v 15.01196 h 125.37317 l 3.0493,-3.89959 2.22834,3.89959 h 92.38795 l -8.82537,-15.01196 z m 299.0367,0 v 15.01196 h 226.73311 v -15.01196 z m 252.00713,0 v 15.01196 h 80.33736 v -15.01196 z m 211.34002,0 v 15.01196 h 80.33734 v -15.01196 z m 211.31066,0 v 15.01196 h 226.73309 v -15.01196 z m 252.00709,0 v 15.01196 h 75.5875 v -15.01196 z m 114.4368,0 8.2096,15.01196 h 84.0024 l -6.8023,-15.01196 z m 111.2408,0 v 15.01196 h 75.5875 V 223.50788 Z M 0,253.53177 v 15.01193 h 101.94633 l 11.72808,-15.01193 z m 139.27095,0 8.62015,15.01193 h 92.7691 l -8.82539,-15.01193 z m 159.76575,0 v 15.01193 h 80.33736 v -15.01193 z m 252.00713,0 v 15.01193 h 80.33736 v -15.01193 z m 211.34002,0 v 15.01193 h 80.33734 v -15.01193 z m 211.31066,0 v 15.01193 h 80.33739 v -15.01193 z m 252.00709,0 v 15.01193 h 75.5875 v -15.01193 z m 130.8268,0 8.2096,15.01193 h 81.1583 l -6.7729,-15.01193 z m 94.8508,0 v 15.01193 h 75.5875 V 253.53177 Z M 0,283.55565 v 15.01195 h 80.337347 v -2.3163 l 9.910227,-12.69565 z m 156.51122,0 8.62015,15.01195 h 93.1796 l -8.8254,-15.01195 z m 142.52548,0 v 15.01195 h 80.33736 v -15.01195 z m 252.00713,0 v 15.01195 h 80.33736 v -15.01195 z m 211.34002,0 v 15.01195 h 80.33734 v -15.01195 z m 211.31066,0 v 15.01195 h 80.33739 v -15.01195 z m 252.00709,0 v 15.01195 h 75.5875 v -15.01195 z m 147.2168,0 8.2096,15.01195 h 145.8387 V 283.55565 Z M 0,313.57952 v 15.01198 h 80.337347 v -15.01198 z m 173.75151,0 8.59081,15.01198 h 93.59007 l -8.82537,-15.01198 z m 125.28519,0 v 15.01198 h 80.33736 v -15.01198 z m 252.00713,0 v 15.01198 h 80.33736 v -15.01198 z m 211.34002,0 v 15.01198 h 80.33734 v -15.01198 z m 211.31066,0 v 15.01198 h 80.33739 v -15.01198 z m 252.00709,0 v 15.01198 h 75.5875 v -15.01198 z m 163.6067,0 8.2097,15.01198 h 129.4487 V 313.57952 Z M 0,343.60342 v 15.01193 h 80.337347 v -15.01193 z m 190.96246,0 8.62014,15.01193 h 94.00057 l -8.82539,-15.01193 z m 108.07424,0 v 15.01193 h 251.06888 v -15.01193 z m 252.00713,0 v 15.01193 h 673.69027 v -15.01193 z m 674.65777,0 v 15.01193 h 75.5875 v -15.01193 z m 179.9967,0 8.2097,15.01193 h 113.0587 V 343.60342 Z M 0,373.62731 v 15.01194 h 80.337347 v -15.01194 z m 208.20274,0 8.62015,15.01194 h 333.28269 v -15.01194 z m 342.84109,0 v 15.01194 h 673.69027 v -15.01194 z m 674.65777,0 v 15.01194 h 75.5875 v -15.01194 z m 196.3867,0 8.1804,15.01194 h 96.698 V 373.62731 Z M 0,403.65118 V 405 h 80.337347 v -1.34882 z m 225.44301,0 0.76231,1.34882 h 94.61628 229.28395 v -1.34882 z m 325.60082,0 V 405 h 220.92771 211.31068 241.45188 v -1.34882 z m 674.65777,0 V 405 h 75.5875 v -1.34882 z m 212.7767,0 0.7331,1.34882 h 87.7553 v -1.34882 z" />
  <path
     id="text446"
     style="font-weight:bold;font-size:37.3333px;font-family:'IBM Plex Sans';-inkscape-font-specification:'IBM Plex Sans Bold';letter-spacing:-4.86px;fill:#0a3d91;fill-opacity:1;stroke:none;stroke-width:7.50597;stroke-linecap:round;stroke-linejoin:round;stroke-miterlimit:181.9"
     d="m 1584.7274,0 c -23.165,0 -43.8802,2.9939037 -62.188,8.9719819 -3.9462,1.2331711 -7.7127,2.6364931 -11.4056,4.1048261 h 148.8293 C 1638.1405,4.4357557 1613.1173,0 1584.7274,0 Z m 296.955,0 c -25.7804,0 -49.3354,4.3074006 -70.6324,12.900888 -0.1351,0.05314 -0.2492,0.122497 -0.3813,0.175925 h 141.9978 c -0.1351,-0.05329 -0.2492,-0.122948 -0.3813,-0.175925 C 1930.9882,4.3074006 1907.4626,0 1881.6821,0 Z m 170.2625,6.7436452 v 6.3331628 h 523.9226 V 6.7436452 H 2311.4287 Z M 1483.3383,28.088751 c -2.2933,1.627404 -4.6288,3.218655 -6.773,4.984434 -3.6947,3.134838 -7.0414,6.52364 -10.2328,10.027508 h 242.2142 c -6.1461,-5.576892 -12.7782,-10.488882 -19.7032,-15.011942 z m 299.623,0 c -6.4056,4.438112 -12.3471,9.519194 -17.9732,15.011942 h 233.3887 c -5.6272,-5.49444 -11.5661,-10.572683 -17.9732,-15.011942 z m 268.9836,0 v 15.011942 h 523.9226 V 28.088751 Z m -597.0766,30.023884 c -2.5234,4.003221 -4.8717,8.146277 -6.8902,12.519726 -0.3735,0.809369 -0.6148,1.673627 -0.9676,2.492216 h 255.3203 l 14.8653,-15.011942 z m 296.6618,0 c -3.723,4.707787 -7.2116,9.707154 -10.4673,15.011942 h 281.2101 c -3.2546,-5.302141 -6.7461,-10.306265 -10.4674,-15.011942 z m 300.4148,0 v 15.011942 h 523.9226 V 58.112635 Z M 1441.8795,88.13652 c -1.2824,4.866307 -2.2942,9.859184 -2.9321,15.01194 h 85.5857 c 1.5966,-5.850915 4.7545,-10.825787 9.3238,-15.01194 z m 191.9593,0 c 7.7674,4.287025 14.8395,9.257833 21.1399,15.01194 h 17.6507 l 14.8654,-15.01194 z m 99.0436,0 c -2.3357,4.809736 -4.5486,9.797346 -6.5677,15.01194 h 93.121 c 0.5795,-0.74286 1.0959,-1.54124 1.7005,-2.25765 4.3609,-5.031643 9.2956,-9.228441 14.6601,-12.75429 z m 194.3929,0 c 5.2878,3.526326 10.117,7.721455 14.3669,12.75429 0.6215,0.71775 1.1634,1.51335 1.7593,2.25765 h 93.6194 c -2.0184,-5.212412 -4.2035,-10.204073 -6.5385,-15.01194 z m 124.6696,0 v 15.01194 h 85.2044 V 88.13652 Z m 332.8135,0 v 15.01194 h 85.1752 V 88.13652 Z m -946.8372,30.02388 c -10e-4,0.21948 -0.03,0.42514 -0.03,0.64506 0,4.94443 0.302,9.71821 0.733,14.3669 h 88.4299 c -1.9786,-4.18565 -3.1696,-9.20348 -3.6065,-15.01194 z m 283.1159,0 c -1.5135,4.87596 -2.9241,9.83251 -4.1342,15.01194 h 87.8727 c 1.4937,-5.36779 3.3614,-10.34863 5.5415,-15.01194 z m 231.7176,0 c 2.2378,4.66337 4.1548,9.64405 5.688,15.01194 h 87.9899 c -1.2099,-5.17943 -2.6205,-10.13598 -4.1341,-15.01194 z m 99.1902,0 v 15.01194 h 85.2044 V 118.1604 Z m 332.8135,0 v 15.01194 h 85.1752 V 118.1604 Z m -943.8465,30.02389 c 1.0992,5.19808 2.4104,10.24247 4.1342,15.01195 h 173.0478 c -3.2328,-0.6185 -6.4427,-1.2565 -9.8223,-1.78853 l -38.6734,-6.15725 c -10.3998,-1.65451 -18.7851,-4.06597 -25.5965,-7.06617 z m 273.147,0 c -0.8286,4.88414 -1.5542,9.8852 -2.1404,15.01195 h 88.2244 c 0.2733,-5.2342 0.7852,-10.22752 1.4952,-15.01195 z m 247.6091,0 c 0.7296,4.78423 1.2745,9.77799 1.5539,15.01195 h 88.2246 c -0.587,-5.12612 -1.3121,-10.12838 -2.1404,-15.01195 z m 90.2769,0 v 15.01195 h 233.7113 v -0.67434 h -148.5069 v -14.33758 z m 332.8135,0 v 15.01195 h 85.1752 v -15.01195 z m -932.7342,30.02389 c 3.002,5.33595 6.5012,10.3377 10.4674,15.01194 h 228.7855 c -7.0789,-5.67159 -15.3171,-10.65618 -24.6291,-15.01194 z m 258.3697,0 c -0.3183,4.84117 -0.3498,9.97291 -0.4684,15.01194 h 89.925 v -15.01194 z m 253.1213,0 v 15.01194 h 322.141 v -15.01194 z m 421.2432,0 v 15.01194 h 85.1752 v -15.01194 z m -905.9061,30.02388 c 8.1195,5.86089 17.5081,10.8748 28.2353,15.01194 h 292.7622 v -15.01194 h -90.013 c 0.03,1.67837 0.1051,3.29732 0.1501,4.95511 -1.1604,-1.71762 -2.4148,-3.33319 -3.6943,-4.95511 z m 484.6629,0 V 223.244 h 322.141 v -15.01194 z m 421.2432,0 V 223.244 h 85.1752 v -15.01194 z m -804.8687,30.02389 16.6245,2.16969 c 16.2623,2.3232 27.3603,6.6866 33.8941,12.84223 h 170.7316 c -0.5975,-4.7645 -0.9037,-9.81959 -1.0854,-15.01192 z m 383.4201,0 c -0.1846,5.19254 -0.5299,10.24722 -1.1439,15.01192 h 87.7554 c 0.7566,-4.86934 1.324,-9.92076 1.8472,-15.01192 z m 88.6351,0 v 15.01192 h 85.2044 v -15.01192 z m 332.8135,0 v 15.01192 h 85.1752 v -15.01192 z m -744.9382,30.02387 c 1.3571,4.3135 2.0817,9.02975 2.0817,14.19098 0,0.28838 -0.09,0.53488 -0.09,0.821 h 167.0664 c -1.9604,-4.66769 -3.5791,-9.68417 -4.8964,-15.01194 z m 319.4435,0 c -1.3511,5.32523 -3.003,10.34617 -5.0137,15.01194 h 89.0454 c 1.4051,-4.89882 2.7835,-9.83677 3.8995,-15.01194 z m 92.6812,0 v 15.01194 h 85.2044 v -15.01194 z m 332.8135,0 v 15.01194 h 85.1752 v -15.01194 z m -916.0509,30.02388 -14.8654,15.01194 h 63.2143 c -7.333,-4.17639 -14.3005,-9.21207 -20.9638,-15.01194 z m 170.4676,0 c -1.9439,5.6376 -5.0339,10.62894 -9.2359,15.01194 h 92.388 c 1.2535,-4.57679 2.2446,-9.27112 2.9907,-14.07369 1.8203,4.83946 3.7423,9.5516 5.8347,14.07369 h 100.1577 c -3.6237,-2.82419 -7.0616,-5.96709 -10.1741,-9.55837 -1.4606,-1.7301 -2.7941,-3.56919 -4.1048,-5.45357 z m 306.6892,0 c -1.345,1.88379 -2.723,3.72398 -4.2221,5.45357 -3.0318,3.5903 -6.3795,6.73475 -9.9395,9.55837 h 100.5097 c 2.2284,-4.81605 4.2667,-9.83593 6.1866,-15.01194 z m 106.0806,0 v 15.01194 h 85.2044 V 298.3037 Z m 332.8135,0 v 15.01194 h 85.1752 V 298.3037 Z m -945.7816,30.02389 -12.8423,12.98885 c 0.6382,0.70902 1.3748,1.32376 2.0231,2.02309 h 281.2686 c 2.8146,-4.57665 5.4345,-9.32796 7.594,-14.3669 0.09,-0.20986 0.1501,-0.43459 0.2342,-0.64506 h -120.1543 c -5.1991,0.73739 -10.7009,1.23143 -16.8297,1.23143 -6.074,0 -11.966,-0.5011 -17.7387,-1.23143 z m 299.9162,0 c 3.0453,5.26233 6.3119,10.25823 9.7931,15.01194 h 265.9634 c 3.4789,-4.75056 6.7495,-9.75343 9.793,-15.01194 h -131.3837 c -3.6766,0.39436 -7.4282,0.64506 -11.3764,0.64506 -3.9457,0 -7.7223,-0.25115 -11.4055,-0.64506 z m 313.0519,0 v 15.01194 h 85.2044 v -15.01194 z m 332.8135,0 v 15.01194 h 85.1752 v -15.01194 z m -940.9438,30.02388 c 6.2215,5.36594 12.8475,10.3579 19.8205,15.01194 h 218.5527 c 1.7043,-1.33726 3.4985,-2.6023 5.1017,-4.01686 4.0014,-3.42968 7.6178,-7.14561 11.0244,-10.99508 z m 317.5671,0 c 5.3262,5.4704 10.9955,10.50272 17.0643,15.01194 h 206.4729 c 6.0667,-4.50759 11.7106,-9.54384 17.035,-15.01194 z m 290.5632,0 v 15.01194 h 85.2044 v -15.01194 z m 332.8135,0 v 15.01194 h 85.1752 v -15.01194 z m -895.0283,30.02388 c 23.441,10.8053 51.7105,16.27273 84.9113,16.27273 24.2858,0 45.977,-2.99391 65.0321,-8.972 6.3846,-2.12821 12.2725,-4.6272 17.944,-7.30073 z m 314.1366,0 c 2.4025,1.11674 4.694,2.36739 7.1833,3.37184 21.297,8.59348 44.852,12.90089 70.6324,12.90089 25.7805,0 49.3061,-4.30741 70.6031,-12.90089 2.4854,-1.00295 4.7845,-2.25699 7.1834,-3.37184 z m 248.0782,0 v 9.55839 h 85.2044 v -9.55839 z m 332.8135,0 v 9.55839 h 85.1752 v -9.55839 z" />
</svg>
